<mxfile host="app.diagrams.net" modified="2023-05-29T10:38:51.106Z" agent="Mozilla/5.0 (Windows NT 10.0; Win64; x64; rv:109.0) Gecko/20100101 Firefox/113.0" version="21.3.2" etag="dF-xKJGghIfnog8UA1M9" type="github">
  <diagram name="Страница 1" id="RQGeMzIBKl22rFHP4c4J">
    <mxGraphModel>
      <root>
        <mxCell id="0" />
        <mxCell id="1" parent="0" />
      </root>
    </mxGraphModel>
  </diagram>
</mxfile>
